<mxfile host="app.diagrams.net" modified="2024-06-12T03:37:18.216Z" agent="Mozilla/5.0 (Macintosh; Intel Mac OS X 10_15_7) AppleWebKit/537.36 (KHTML, like Gecko) Chrome/123.0.0.0 Safari/537.36" etag="d7IPth_NZQlE1bG_BxhI" version="24.5.3" type="github">
  <diagram name="第 1 页" id="650_0008pZhlcv7stxL-">
    <mxGraphModel dx="1811" dy="1795" grid="1" gridSize="10" guides="1" tooltips="1" connect="1" arrows="1" fold="1" page="1" pageScale="1" pageWidth="827" pageHeight="1169" math="0" shadow="0">
      <root>
        <mxCell id="0" />
        <mxCell id="1" parent="0" />
        <mxCell id="lIHNAKvChLtOhRkSrMmg-3" value="" style="edgeStyle=orthogonalEdgeStyle;rounded=0;orthogonalLoop=1;jettySize=auto;html=1;" edge="1" parent="1" source="lIHNAKvChLtOhRkSrMmg-1" target="lIHNAKvChLtOhRkSrMmg-2">
          <mxGeometry relative="1" as="geometry" />
        </mxCell>
        <mxCell id="lIHNAKvChLtOhRkSrMmg-19" value="" style="edgeStyle=orthogonalEdgeStyle;rounded=0;orthogonalLoop=1;jettySize=auto;html=1;" edge="1" parent="1" source="lIHNAKvChLtOhRkSrMmg-1" target="lIHNAKvChLtOhRkSrMmg-18">
          <mxGeometry relative="1" as="geometry" />
        </mxCell>
        <mxCell id="lIHNAKvChLtOhRkSrMmg-21" value="" style="edgeStyle=orthogonalEdgeStyle;rounded=0;orthogonalLoop=1;jettySize=auto;html=1;" edge="1" parent="1" source="lIHNAKvChLtOhRkSrMmg-1" target="lIHNAKvChLtOhRkSrMmg-20">
          <mxGeometry relative="1" as="geometry" />
        </mxCell>
        <mxCell id="lIHNAKvChLtOhRkSrMmg-34" value="" style="edgeStyle=orthogonalEdgeStyle;rounded=0;orthogonalLoop=1;jettySize=auto;html=1;" edge="1" parent="1" source="lIHNAKvChLtOhRkSrMmg-1" target="lIHNAKvChLtOhRkSrMmg-33">
          <mxGeometry relative="1" as="geometry" />
        </mxCell>
        <mxCell id="lIHNAKvChLtOhRkSrMmg-36" value="" style="edgeStyle=orthogonalEdgeStyle;rounded=0;orthogonalLoop=1;jettySize=auto;html=1;" edge="1" parent="1" source="lIHNAKvChLtOhRkSrMmg-1" target="lIHNAKvChLtOhRkSrMmg-35">
          <mxGeometry relative="1" as="geometry" />
        </mxCell>
        <mxCell id="lIHNAKvChLtOhRkSrMmg-1" value="記憶" style="ellipse;whiteSpace=wrap;html=1;" vertex="1" parent="1">
          <mxGeometry x="350" y="160" width="120" height="80" as="geometry" />
        </mxCell>
        <mxCell id="lIHNAKvChLtOhRkSrMmg-5" value="" style="edgeStyle=orthogonalEdgeStyle;rounded=0;orthogonalLoop=1;jettySize=auto;html=1;" edge="1" parent="1" source="lIHNAKvChLtOhRkSrMmg-2" target="lIHNAKvChLtOhRkSrMmg-4">
          <mxGeometry relative="1" as="geometry" />
        </mxCell>
        <mxCell id="lIHNAKvChLtOhRkSrMmg-11" value="" style="edgeStyle=orthogonalEdgeStyle;rounded=0;orthogonalLoop=1;jettySize=auto;html=1;" edge="1" parent="1" source="lIHNAKvChLtOhRkSrMmg-2" target="lIHNAKvChLtOhRkSrMmg-10">
          <mxGeometry relative="1" as="geometry" />
        </mxCell>
        <mxCell id="lIHNAKvChLtOhRkSrMmg-15" value="" style="edgeStyle=orthogonalEdgeStyle;rounded=0;orthogonalLoop=1;jettySize=auto;html=1;" edge="1" parent="1" source="lIHNAKvChLtOhRkSrMmg-2" target="lIHNAKvChLtOhRkSrMmg-14">
          <mxGeometry relative="1" as="geometry" />
        </mxCell>
        <mxCell id="lIHNAKvChLtOhRkSrMmg-2" value="登錄－儲存－提取" style="whiteSpace=wrap;html=1;" vertex="1" parent="1">
          <mxGeometry x="350" y="330" width="120" height="60" as="geometry" />
        </mxCell>
        <mxCell id="lIHNAKvChLtOhRkSrMmg-7" value="" style="edgeStyle=orthogonalEdgeStyle;rounded=0;orthogonalLoop=1;jettySize=auto;html=1;" edge="1" parent="1" source="lIHNAKvChLtOhRkSrMmg-4" target="lIHNAKvChLtOhRkSrMmg-6">
          <mxGeometry relative="1" as="geometry" />
        </mxCell>
        <mxCell id="lIHNAKvChLtOhRkSrMmg-9" value="" style="edgeStyle=orthogonalEdgeStyle;rounded=0;orthogonalLoop=1;jettySize=auto;html=1;" edge="1" parent="1" source="lIHNAKvChLtOhRkSrMmg-4" target="lIHNAKvChLtOhRkSrMmg-8">
          <mxGeometry relative="1" as="geometry" />
        </mxCell>
        <mxCell id="lIHNAKvChLtOhRkSrMmg-4" value="在登錄先將資訊轉化後會更容易記憶" style="whiteSpace=wrap;html=1;" vertex="1" parent="1">
          <mxGeometry x="345" y="470" width="130" height="60" as="geometry" />
        </mxCell>
        <mxCell id="lIHNAKvChLtOhRkSrMmg-6" value="換句話說" style="whiteSpace=wrap;html=1;" vertex="1" parent="1">
          <mxGeometry x="260" y="610" width="120" height="60" as="geometry" />
        </mxCell>
        <mxCell id="lIHNAKvChLtOhRkSrMmg-8" value="有自己的理解能幫助記憶" style="whiteSpace=wrap;html=1;" vertex="1" parent="1">
          <mxGeometry x="440" y="610" width="120" height="60" as="geometry" />
        </mxCell>
        <mxCell id="lIHNAKvChLtOhRkSrMmg-13" value="" style="edgeStyle=orthogonalEdgeStyle;rounded=0;orthogonalLoop=1;jettySize=auto;html=1;" edge="1" parent="1" source="lIHNAKvChLtOhRkSrMmg-10" target="lIHNAKvChLtOhRkSrMmg-12">
          <mxGeometry relative="1" as="geometry" />
        </mxCell>
        <mxCell id="lIHNAKvChLtOhRkSrMmg-17" value="" style="edgeStyle=orthogonalEdgeStyle;rounded=0;orthogonalLoop=1;jettySize=auto;html=1;endArrow=none;endFill=0;" edge="1" parent="1" source="lIHNAKvChLtOhRkSrMmg-10" target="lIHNAKvChLtOhRkSrMmg-14">
          <mxGeometry relative="1" as="geometry" />
        </mxCell>
        <mxCell id="lIHNAKvChLtOhRkSrMmg-10" value="閃光燈記憶" style="whiteSpace=wrap;html=1;" vertex="1" parent="1">
          <mxGeometry x="600" y="470" width="120" height="60" as="geometry" />
        </mxCell>
        <mxCell id="lIHNAKvChLtOhRkSrMmg-12" value="強烈的情緒" style="whiteSpace=wrap;html=1;" vertex="1" parent="1">
          <mxGeometry x="600" y="610" width="120" height="60" as="geometry" />
        </mxCell>
        <mxCell id="lIHNAKvChLtOhRkSrMmg-14" value="依然有可能會扭曲" style="whiteSpace=wrap;html=1;" vertex="1" parent="1">
          <mxGeometry x="780" y="470" width="120" height="60" as="geometry" />
        </mxCell>
        <mxCell id="lIHNAKvChLtOhRkSrMmg-24" value="" style="edgeStyle=orthogonalEdgeStyle;rounded=0;orthogonalLoop=1;jettySize=auto;html=1;" edge="1" parent="1" source="lIHNAKvChLtOhRkSrMmg-18" target="lIHNAKvChLtOhRkSrMmg-23">
          <mxGeometry relative="1" as="geometry" />
        </mxCell>
        <mxCell id="lIHNAKvChLtOhRkSrMmg-27" style="edgeStyle=orthogonalEdgeStyle;rounded=0;orthogonalLoop=1;jettySize=auto;html=1;exitX=0.5;exitY=0;exitDx=0;exitDy=0;entryX=1;entryY=0.5;entryDx=0;entryDy=0;curved=1;" edge="1" parent="1" source="lIHNAKvChLtOhRkSrMmg-18" target="lIHNAKvChLtOhRkSrMmg-20">
          <mxGeometry relative="1" as="geometry" />
        </mxCell>
        <mxCell id="lIHNAKvChLtOhRkSrMmg-28" value="" style="edgeStyle=orthogonalEdgeStyle;rounded=0;orthogonalLoop=1;jettySize=auto;html=1;" edge="1" parent="1" source="lIHNAKvChLtOhRkSrMmg-18" target="lIHNAKvChLtOhRkSrMmg-23">
          <mxGeometry relative="1" as="geometry" />
        </mxCell>
        <mxCell id="lIHNAKvChLtOhRkSrMmg-30" value="" style="edgeStyle=orthogonalEdgeStyle;rounded=0;orthogonalLoop=1;jettySize=auto;html=1;" edge="1" parent="1" source="lIHNAKvChLtOhRkSrMmg-18" target="lIHNAKvChLtOhRkSrMmg-29">
          <mxGeometry relative="1" as="geometry" />
        </mxCell>
        <mxCell id="lIHNAKvChLtOhRkSrMmg-18" value="短期記憶" style="whiteSpace=wrap;html=1;" vertex="1" parent="1">
          <mxGeometry x="620" y="170" width="120" height="60" as="geometry" />
        </mxCell>
        <mxCell id="lIHNAKvChLtOhRkSrMmg-20" value="長期記憶" style="whiteSpace=wrap;html=1;" vertex="1" parent="1">
          <mxGeometry x="350" y="-30" width="120" height="60" as="geometry" />
        </mxCell>
        <mxCell id="lIHNAKvChLtOhRkSrMmg-23" value="3~4個字&lt;div&gt;3~4個組別&lt;/div&gt;" style="rounded=1;whiteSpace=wrap;html=1;" vertex="1" parent="1">
          <mxGeometry x="820" y="170" width="120" height="60" as="geometry" />
        </mxCell>
        <mxCell id="lIHNAKvChLtOhRkSrMmg-32" value="" style="edgeStyle=orthogonalEdgeStyle;rounded=0;orthogonalLoop=1;jettySize=auto;html=1;" edge="1" parent="1" source="lIHNAKvChLtOhRkSrMmg-25" target="lIHNAKvChLtOhRkSrMmg-31">
          <mxGeometry relative="1" as="geometry" />
        </mxCell>
        <mxCell id="lIHNAKvChLtOhRkSrMmg-25" value="分散式學習&lt;div&gt;轉換過的資訊&lt;/div&gt;&lt;div&gt;分類&lt;/div&gt;" style="whiteSpace=wrap;html=1;" vertex="1" parent="1">
          <mxGeometry x="560" y="30" width="120" height="60" as="geometry" />
        </mxCell>
        <mxCell id="lIHNAKvChLtOhRkSrMmg-29" value="聲音是一重要元素" style="rounded=1;whiteSpace=wrap;html=1;fillColor=#dae8fc;strokeColor=#6c8ebf;" vertex="1" parent="1">
          <mxGeometry x="820" y="260" width="120" height="60" as="geometry" />
        </mxCell>
        <mxCell id="lIHNAKvChLtOhRkSrMmg-31" value="精緻化的複誦" style="whiteSpace=wrap;html=1;" vertex="1" parent="1">
          <mxGeometry x="707" y="-60" width="120" height="60" as="geometry" />
        </mxCell>
        <mxCell id="lIHNAKvChLtOhRkSrMmg-38" value="" style="edgeStyle=orthogonalEdgeStyle;rounded=0;orthogonalLoop=1;jettySize=auto;html=1;" edge="1" parent="1" source="lIHNAKvChLtOhRkSrMmg-33" target="lIHNAKvChLtOhRkSrMmg-37">
          <mxGeometry relative="1" as="geometry" />
        </mxCell>
        <mxCell id="lIHNAKvChLtOhRkSrMmg-33" value="遺忘" style="whiteSpace=wrap;html=1;" vertex="1" parent="1">
          <mxGeometry x="150" y="330" width="120" height="60" as="geometry" />
        </mxCell>
        <mxCell id="lIHNAKvChLtOhRkSrMmg-40" value="" style="edgeStyle=orthogonalEdgeStyle;rounded=0;orthogonalLoop=1;jettySize=auto;html=1;" edge="1" parent="1" source="lIHNAKvChLtOhRkSrMmg-35" target="lIHNAKvChLtOhRkSrMmg-39">
          <mxGeometry relative="1" as="geometry" />
        </mxCell>
        <mxCell id="lIHNAKvChLtOhRkSrMmg-42" value="" style="edgeStyle=orthogonalEdgeStyle;rounded=0;orthogonalLoop=1;jettySize=auto;html=1;" edge="1" parent="1" source="lIHNAKvChLtOhRkSrMmg-35" target="lIHNAKvChLtOhRkSrMmg-41">
          <mxGeometry relative="1" as="geometry" />
        </mxCell>
        <mxCell id="lIHNAKvChLtOhRkSrMmg-35" value="干擾" style="whiteSpace=wrap;html=1;" vertex="1" parent="1">
          <mxGeometry y="330" width="120" height="60" as="geometry" />
        </mxCell>
        <mxCell id="lIHNAKvChLtOhRkSrMmg-37" value="不常走的路會雜草叢生" style="rounded=1;whiteSpace=wrap;html=1;" vertex="1" parent="1">
          <mxGeometry x="145" y="470" width="130" height="60" as="geometry" />
        </mxCell>
        <mxCell id="lIHNAKvChLtOhRkSrMmg-46" value="" style="edgeStyle=orthogonalEdgeStyle;rounded=0;orthogonalLoop=1;jettySize=auto;html=1;" edge="1" parent="1" source="lIHNAKvChLtOhRkSrMmg-39" target="lIHNAKvChLtOhRkSrMmg-45">
          <mxGeometry relative="1" as="geometry" />
        </mxCell>
        <mxCell id="lIHNAKvChLtOhRkSrMmg-39" value="近因現象" style="rounded=1;whiteSpace=wrap;html=1;" vertex="1" parent="1">
          <mxGeometry x="-150" y="470" width="120" height="60" as="geometry" />
        </mxCell>
        <mxCell id="lIHNAKvChLtOhRkSrMmg-44" value="" style="edgeStyle=orthogonalEdgeStyle;rounded=0;orthogonalLoop=1;jettySize=auto;html=1;" edge="1" parent="1" source="lIHNAKvChLtOhRkSrMmg-41" target="lIHNAKvChLtOhRkSrMmg-43">
          <mxGeometry relative="1" as="geometry" />
        </mxCell>
        <mxCell id="lIHNAKvChLtOhRkSrMmg-41" value="首因現象" style="rounded=1;whiteSpace=wrap;html=1;" vertex="1" parent="1">
          <mxGeometry y="470" width="120" height="60" as="geometry" />
        </mxCell>
        <mxCell id="lIHNAKvChLtOhRkSrMmg-52" value="" style="edgeStyle=orthogonalEdgeStyle;rounded=0;orthogonalLoop=1;jettySize=auto;html=1;" edge="1" parent="1" source="lIHNAKvChLtOhRkSrMmg-43" target="lIHNAKvChLtOhRkSrMmg-47">
          <mxGeometry relative="1" as="geometry" />
        </mxCell>
        <mxCell id="lIHNAKvChLtOhRkSrMmg-43" value="中間的資訊容易受到一開始所講的內容影響" style="rounded=1;whiteSpace=wrap;html=1;" vertex="1" parent="1">
          <mxGeometry x="-5" y="610" width="130" height="60" as="geometry" />
        </mxCell>
        <mxCell id="lIHNAKvChLtOhRkSrMmg-51" value="" style="edgeStyle=orthogonalEdgeStyle;rounded=0;orthogonalLoop=1;jettySize=auto;html=1;" edge="1" parent="1" source="lIHNAKvChLtOhRkSrMmg-45" target="lIHNAKvChLtOhRkSrMmg-47">
          <mxGeometry relative="1" as="geometry" />
        </mxCell>
        <mxCell id="lIHNAKvChLtOhRkSrMmg-45" value="中間的資訊容易受到最後所講的內容影響" style="rounded=1;whiteSpace=wrap;html=1;" vertex="1" parent="1">
          <mxGeometry x="-155" y="610" width="130" height="60" as="geometry" />
        </mxCell>
        <mxCell id="lIHNAKvChLtOhRkSrMmg-47" value="重要的事情放在一開始或是最後再說" style="rounded=1;whiteSpace=wrap;html=1;" vertex="1" parent="1">
          <mxGeometry x="-140" y="740" width="250" height="60" as="geometry" />
        </mxCell>
      </root>
    </mxGraphModel>
  </diagram>
</mxfile>
